<?xml version="1.0" encoding="utf-8"?>
<!-- Generator: Adobe Illustrator 24.0.1, SVG Export Plug-In . SVG Version: 6.00 Build 0)  -->
<svg version="1.1" id="Layer_1" xmlns="http://www.w3.org/2000/svg" xmlns:xlink="http://www.w3.org/1999/xlink" x="0px" y="0px"
	 viewBox="0 0 143.9 27.9" style="enable-background:new 0 0 143.9 27.9;" xml:space="preserve">
<style type="text/css">
	.st0{fill:#FFFFFF;}
	.st1{fill:#171717;}
	.st2{fill:#DC2827;}
</style>
<g>
	<g>
		<g>
			<path class="st0" d="M142.4,11.7c-1-1-2.3-1.5-3.9-1.5c-0.7,0-1.4,0.1-2,0.4c-0.7,0.3-1.3,0.6-1.8,1.2c-0.5,0.5-0.9,1.1-1.2,1.9
				c-0.2,0.4-0.3,0.9-0.4,1.4l-0.1-0.1c0-0.5-0.1-0.9-0.2-1.3c-0.1-0.7-0.4-1.2-0.8-1.7c-0.4-0.5-0.9-0.9-1.5-1.2
				c-0.6-0.3-1.3-0.4-2.2-0.4c-0.5,0-1.1,0.1-1.7,0.3c-0.3,0.1-0.7,0.2-1,0.4c-0.2-0.1-0.4-0.2-0.7-0.3c-0.5-0.2-1.2-0.3-2-0.3
				c-0.4,0-0.8,0-1.1,0c-0.4,0-0.7,0.1-1.1,0.1c-0.4,0.1-0.7,0.1-1,0.2c-0.3,0.1-0.6,0.1-0.8,0.2l-0.7,0.2v0.8v1.4v1v6.6v0.2v0.8
				v0.2h1h19h1v0c0.3,0,0.5,0,0.8,0c0.3,0,0.7-0.1,1-0.1c0.3-0.1,0.6-0.1,0.9-0.2c0.3-0.1,0.5-0.2,0.7-0.3l0.7-0.3l-0.1-0.7L143,18
				l0-0.1h0.8l0.1-0.9c0-0.1,0-0.3,0-0.5c0-0.2,0-0.4,0-0.6C143.9,14.1,143.4,12.7,142.4,11.7z"/>
			<path class="st0" d="M52.9,18.4H54l-1.8,1.8l-1.7,1.7h2.4h2.4h0.4l0.3-0.3l6.8-6.8c-0.2,0.6-0.5,1.2-0.7,1.8
				c-0.1,0.2-0.2,0.5-0.2,0.7h0L61.5,18l-0.1,0.2c-0.1,0.4-0.3,0.7-0.4,1.1l-0.5,1.2L60.1,22l1.4,0l13.3,0h35.9v0c0,0,0.1,0,0.1,0
				c0.7,0,1.2-0.1,1.7-0.2c0.4-0.1,0.8-0.2,1.2-0.4l0.8-0.3l-0.1-0.8l-0.4-2.1l-0.2-1.2l-1.1,0.4c-0.2,0.1-0.4,0.1-0.6,0.2
				c-0.2,0-0.5,0.1-0.7,0.1c-0.2,0-0.3,0-0.3,0c-0.1-0.1-0.1-0.3-0.1-0.8v-2.3h2.2h1v-1v-2.2v-1h-1h-2.2V8.7V7.5l-1.2,0.2L107,8.1
				l-0.8,0.1v0.9v1.3h-0.4v0h-1h-2.6h-1v1v6.3c-0.1,0-0.1,0-0.2,0c-0.3,0-0.4-0.1-0.4-0.1c0-0.1-0.2-0.4-0.2-1.3v-4.9v-1h-1h-2.6h-1
				v1v3.9c-0.1-0.6-0.2-1.1-0.3-1.6c-0.3-0.7-0.7-1.4-1.1-1.9c-0.5-0.5-1.1-0.9-1.8-1.2c-0.7-0.3-1.4-0.4-2.2-0.4
				c-0.8,0-1.5,0.1-2.2,0.4c-0.7,0.3-1.3,0.7-1.8,1.2c-0.5,0.5-0.9,1.1-1.2,1.9c-0.1,0.2-0.1,0.5-0.2,0.7c0-0.2-0.1-0.4-0.1-0.6
				c-0.2-0.7-0.5-1.3-1-1.9c-0.4-0.5-1-1-1.6-1.3c-0.6-0.3-1.4-0.4-2.2-0.4c-0.3,0-0.6,0-0.9,0.1V7V5.8L77.9,6l-2.6,0.4l-0.8,0.1
				v0.9v11.4c-0.3-0.7-0.5-1.5-0.8-2.1c-0.4-1.1-0.8-2.2-1.2-3.2c-0.4-1-0.8-2-1.2-2.8c-0.4-0.9-0.8-1.8-1.2-2.6l-0.3-0.6h-0.6h-2.6
				h-0.6L65.7,8c-0.4,0.9-0.8,1.8-1.2,2.6c-0.4,0.9-0.8,1.8-1.2,2.8c0,0,0,0,0,0l-0.3-0.3l-3.5-3.4l-0.3-0.3h-0.4h-2.4h-0.7
				l-3.2-3.2L52.2,6h-0.4h-2.4h-1.6l-5.3-5.3L41.8,0l-0.7,0.7l-6.8,6.8L34,7.2l-0.9-0.9l-0.7-0.7l-0.7,0.7l-5.3,5.3L21,6.3l-0.7-0.7
				l-0.7,0.7l-0.9,0.9l-0.7,0.7l0.7,0.7l0.9,0.9h-2.1h-0.7l-3.2-3.2L13.2,6h-0.4h-2.4H8l1.7,1.7l1.8,1.8H9.4H8.7L5.5,6.3L5.2,6H4.8
				H2.4H0l1.7,1.7L8,13.9l-2.8,2.8l-1.7,1.7h2.4H7l-1.8,1.8l-1.7,1.7h2.4h2.4h0.4L9,21.6l3.2-3.2h1.7H15l-1.8,1.8l-1.7,1.7h2.4h2.4
				h0.4l0.3-0.3l1.3-1.3l0.4,0.4l0.9,0.9l0.7,0.7l0.7-0.7l5.3-5.3l5.3,5.3l0.7,0.7l0.7-0.7l0.9-0.9l0.3-0.3l6.8,6.8l0.7,0.7l0.7-0.7
				l8.8-8.8H52.9z"/>
			<path class="st0" d="M143.6,24.7l-1.2-1.2l-0.3,0.3l-0.4-0.3l-1,1l-1-1l-0.4,0.3l-0.3-0.3l-1.1,1l-1.1-1l-0.3,0.3l-0.3-0.3
				l-1.1,1l-1-1l-0.3,0.3l-0.4-0.3l-1,1l-1-1l-0.4,0.3l-0.3-0.3l-1.2,1.2l0.3,0.4l-0.3,0.3l1.2,1.2l0.3-0.3l0.4,0.3l1-1l1,1l0.4-0.3
				l0,0l0.3,0.3l1-1l1.1,1l0.3-0.3l0.3,0.3l1.1-1l1.1,1l0.3-0.3l0.4,0.3l1-1l1,1l0.4-0.3l0,0l0.3,0.3l1.2-1.2l-0.3-0.3L143.6,24.7z
				 M132.2,25.3l-0.2-0.2l0.2-0.2l0.2,0.2h0L132.2,25.3z M135,25.3l-0.2-0.2l0.2-0.2l0.2,0.2L135,25.3z M137.8,25.3l-0.2-0.2
				l0.2-0.2l0.2,0.2L137.8,25.3z M140.6,25.3l-0.2-0.2l0.2-0.2l0.2,0.2h0L140.6,25.3z"/>
			<polygon class="st0" points="127.2,23.2 47.9,23.2 47.5,23.2 47.2,23.5 45.5,25.2 43.8,26.9 46.2,26.9 125.5,26.9 125.9,26.9 
				126.2,26.6 127.9,25 129.6,23.2 			"/>
		</g>
	</g>
	<g>
		<g>
			<path class="st1" d="M71.1,20.7c-0.1-0.4-0.3-0.9-0.4-1.3c-0.2-0.4-0.3-0.9-0.5-1.3h-4.8c-0.2,0.4-0.3,0.9-0.5,1.3
				c-0.2,0.4-0.3,0.9-0.4,1.3h-2.9c0.5-1.3,0.9-2.5,1.3-3.7c0.4-1.1,0.8-2.2,1.2-3.2c0.4-1,0.8-1.9,1.2-2.8c0.4-0.9,0.8-1.8,1.2-2.6
				h2.6c0.4,0.8,0.8,1.7,1.2,2.6c0.4,0.9,0.8,1.8,1.2,2.8c0.4,1,0.8,2,1.2,3.2c0.4,1.1,0.9,2.3,1.3,3.7H71.1z M67.8,11.2
				c-0.1,0.2-0.2,0.4-0.3,0.7c-0.1,0.3-0.3,0.7-0.4,1.1c-0.2,0.4-0.3,0.8-0.5,1.3c-0.2,0.5-0.4,1-0.6,1.5h3.5
				c-0.2-0.5-0.4-1-0.5-1.5c-0.2-0.5-0.3-0.9-0.5-1.3s-0.3-0.8-0.4-1.1C68,11.6,67.9,11.4,67.8,11.2z"/>
			<path class="st1" d="M84.1,16c0,0.7-0.1,1.4-0.3,2c-0.2,0.6-0.5,1.1-0.9,1.5c-0.4,0.4-0.9,0.8-1.5,1s-1.3,0.3-2,0.3
				c-0.3,0-0.7,0-1,0c-0.3,0-0.7-0.1-1-0.1c-0.3,0-0.7-0.1-1-0.2c-0.3-0.1-0.6-0.1-0.8-0.2v-13L78.1,7v4.6c0.3-0.1,0.6-0.2,0.9-0.3
				s0.7-0.1,1-0.1c0.7,0,1.2,0.1,1.7,0.3c0.5,0.2,0.9,0.6,1.3,1s0.6,0.9,0.8,1.5C84,14.6,84.1,15.3,84.1,16z M81.4,16
				c0-1.7-0.6-2.5-1.9-2.5c-0.3,0-0.5,0-0.8,0.1c-0.3,0.1-0.5,0.2-0.6,0.3v4.8c0.1,0,0.3,0,0.5,0.1c0.2,0,0.4,0,0.7,0
				c0.7,0,1.3-0.2,1.6-0.7C81.2,17.4,81.4,16.8,81.4,16z"/>
			<path class="st1" d="M94.8,16c0,0.7-0.1,1.4-0.3,2c-0.2,0.6-0.5,1.1-0.9,1.6c-0.4,0.4-0.9,0.8-1.4,1c-0.6,0.2-1.2,0.4-1.9,0.4
				c-0.7,0-1.3-0.1-1.9-0.4c-0.6-0.2-1-0.6-1.4-1c-0.4-0.4-0.7-0.9-0.9-1.6c-0.2-0.6-0.3-1.3-0.3-2s0.1-1.4,0.3-2
				c0.2-0.6,0.5-1.1,1-1.5c0.4-0.4,0.9-0.8,1.4-1c0.6-0.2,1.2-0.4,1.8-0.4c0.7,0,1.3,0.1,1.8,0.4c0.6,0.2,1,0.6,1.4,1
				c0.4,0.4,0.7,0.9,0.9,1.5C94.7,14.6,94.8,15.3,94.8,16z M92.1,16c0-0.8-0.2-1.5-0.5-1.9c-0.3-0.5-0.8-0.7-1.4-0.7
				c-0.6,0-1.1,0.2-1.4,0.7c-0.3,0.5-0.5,1.1-0.5,1.9s0.2,1.5,0.5,1.9c0.3,0.5,0.8,0.7,1.4,0.7c0.6,0,1.1-0.2,1.4-0.7
				C92,17.5,92.1,16.8,92.1,16z"/>
			<path class="st1" d="M104.8,20.4c-0.4,0.1-1,0.3-1.7,0.4c-0.7,0.1-1.4,0.2-2.2,0.2c-0.8,0-1.4-0.1-2-0.3
				c-0.5-0.2-0.9-0.5-1.2-0.9s-0.5-0.8-0.7-1.4c-0.1-0.5-0.2-1.1-0.2-1.7v-5.2h2.6v4.9c0,0.8,0.1,1.5,0.3,1.8
				c0.2,0.4,0.6,0.6,1.3,0.6c0.2,0,0.4,0,0.6,0c0.2,0,0.4,0,0.6-0.1v-7.2h2.6V20.4z"/>
			<path class="st1" d="M107.2,9.1l2.6-0.4v2.7h3.2v2.2h-3.2v3.3c0,0.6,0.1,1,0.3,1.3c0.2,0.3,0.6,0.5,1.2,0.5c0.3,0,0.6,0,0.9-0.1
				c0.3-0.1,0.6-0.1,0.8-0.2l0.4,2.1c-0.3,0.1-0.7,0.2-1.1,0.3c-0.4,0.1-0.9,0.1-1.4,0.1c-0.7,0-1.3-0.1-1.8-0.3
				c-0.5-0.2-0.8-0.5-1.1-0.8c-0.3-0.3-0.5-0.8-0.6-1.3c-0.1-0.5-0.2-1-0.2-1.6V9.1z"/>
			<path class="st1" d="M124.5,15.8c0-0.8-0.1-1.4-0.3-1.8c-0.2-0.4-0.6-0.5-1.1-0.5c-0.2,0-0.3,0-0.5,0c-0.2,0-0.3,0-0.5,0.1v7.2
				h-2.6v-9c0.2-0.1,0.5-0.1,0.8-0.2c0.3-0.1,0.6-0.1,1-0.2c0.3-0.1,0.7-0.1,1-0.1c0.4,0,0.7,0,1,0c0.7,0,1.2,0.1,1.6,0.3
				c0.4,0.2,0.8,0.4,1,0.6c0.4-0.3,0.8-0.5,1.3-0.6c0.5-0.2,0.9-0.2,1.4-0.2c0.7,0,1.4,0.1,1.8,0.3c0.5,0.2,0.9,0.5,1.1,0.9
				c0.3,0.4,0.5,0.8,0.6,1.3c0.1,0.5,0.2,1.1,0.2,1.7v5.2h-2.6v-4.9c0-0.8-0.1-1.4-0.3-1.8c-0.2-0.4-0.6-0.5-1.1-0.5
				c-0.1,0-0.3,0-0.6,0.1c-0.3,0.1-0.5,0.2-0.6,0.3c0.1,0.3,0.1,0.6,0.2,0.9c0,0.3,0,0.6,0,1v5.1h-2.6V15.8z"/>
			<path class="st1" d="M134.1,16.1c0-0.8,0.1-1.5,0.4-2.2s0.6-1.1,1-1.5c0.4-0.4,0.9-0.7,1.4-0.9c0.5-0.2,1.1-0.3,1.7-0.3
				c1.3,0,2.4,0.4,3.1,1.2c0.8,0.8,1.1,2,1.1,3.6c0,0.2,0,0.3,0,0.5c0,0.2,0,0.3,0,0.5h-6c0.1,0.5,0.3,1,0.8,1.3
				c0.4,0.3,1,0.5,1.8,0.5c0.5,0,1,0,1.4-0.1c0.5-0.1,0.8-0.2,1.1-0.3l0.4,2.1c-0.1,0.1-0.3,0.1-0.6,0.2c-0.2,0.1-0.5,0.1-0.8,0.2
				c-0.3,0.1-0.6,0.1-0.9,0.1c-0.3,0-0.7,0.1-1,0.1c-0.8,0-1.6-0.1-2.2-0.4c-0.6-0.2-1.1-0.6-1.5-1c-0.4-0.4-0.7-0.9-0.9-1.5
				C134.2,17.4,134.1,16.8,134.1,16.1z M140.3,15.1c0-0.2-0.1-0.4-0.1-0.7c-0.1-0.2-0.2-0.4-0.3-0.6c-0.1-0.2-0.3-0.3-0.5-0.4
				c-0.2-0.1-0.5-0.2-0.8-0.2c-0.3,0-0.5,0.1-0.8,0.1c-0.2,0.1-0.4,0.2-0.5,0.4c-0.1,0.2-0.3,0.4-0.3,0.6c-0.1,0.2-0.1,0.4-0.2,0.7
				H140.3z"/>
		</g>
		<g>
			<g>
				<polygon class="st1" points="19.3,7.9 20.3,7 26.3,13 32.4,7 33.3,7.9 27.2,13.9 33.3,20 32.4,20.9 26.3,14.9 20.3,20.9 
					19.3,20 25.4,13.9 				"/>
				<path class="st1" d="M41.8,4.6l-9.3,9.3l9.3,9.4l9.4-9.3L41.8,4.6 M41.8,1.4L54.4,14L41.8,26.5L29.3,14L41.8,1.4L41.8,1.4z"/>
				<path class="st2" d="M41.8,6.9l-7,7l7,7l7-7L41.8,6.9L41.8,6.9z"/>
				<g>
					<g>
						<polygon class="st1" points="19.7,13.9 12.8,7 10.4,7 17.4,13.9 13.9,17.4 16.3,17.4 						"/>
					</g>
					<g>
						<polygon class="st1" points="23.2,13.9 19.7,10.5 17.4,10.5 20.9,13.9 13.9,20.9 16.3,20.9 						"/>
					</g>
				</g>
				<g>
					<g>
						<polygon class="st1" points="11.8,13.9 4.8,7 2.4,7 9.4,13.9 5.9,17.4 8.3,17.4 						"/>
					</g>
					<g>
						<polygon class="st1" points="15.2,13.9 11.8,10.5 9.4,10.5 12.9,13.9 5.9,20.9 8.3,20.9 						"/>
					</g>
				</g>
				<g>
					<g>
						<polygon class="st1" points="58.7,13.9 51.8,7 49.4,7 56.4,13.9 52.9,17.4 55.2,17.4 						"/>
					</g>
					<g>
						<polygon class="st1" points="62.2,13.9 58.7,10.5 56.4,10.5 59.9,13.9 52.9,20.9 55.2,20.9 						"/>
					</g>
				</g>
			</g>
			<g>
				<polygon class="st1" points="131.2,24.2 130.8,24.6 130.5,24.2 130,24.7 130.3,25.1 130,25.4 130.5,25.9 130.8,25.6 131.2,25.9 
					131.7,25.4 131.3,25.1 131.7,24.7 				"/>
				<polygon class="st1" points="134,24.2 133.6,24.6 133.3,24.2 132.8,24.7 133.1,25.1 132.8,25.4 133.3,25.9 133.6,25.6 134,25.9 
					134.5,25.4 134.1,25.1 134.5,24.7 				"/>
				<polygon class="st1" points="136.8,24.2 136.4,24.6 136.1,24.2 135.6,24.7 135.9,25.1 135.6,25.4 136.1,25.9 136.4,25.6 
					136.8,25.9 137.3,25.4 136.9,25.1 137.3,24.7 				"/>
				<polygon class="st1" points="139.6,24.2 139.2,24.6 138.9,24.2 138.4,24.7 138.7,25.1 138.4,25.4 138.9,25.9 139.2,25.6 
					139.6,25.9 140.1,25.4 139.7,25.1 140.1,24.7 				"/>
				<polygon class="st1" points="142.4,24.2 142,24.6 141.7,24.2 141.2,24.7 141.5,25.1 141.2,25.4 141.7,25.9 142,25.6 142.4,25.9 
					142.9,25.4 142.5,25.1 142.9,24.7 				"/>
			</g>
			<polygon class="st1" points="127.2,24.2 125.5,25.9 46.2,25.9 47.9,24.2 			"/>
		</g>
	</g>
</g>
</svg>
