<?xml version="1.0" encoding="utf-8"?>
<!-- Generator: Adobe Illustrator 24.0.1, SVG Export Plug-In . SVG Version: 6.00 Build 0)  -->
<svg version="1.1" id="Layer_1" xmlns="http://www.w3.org/2000/svg" xmlns:xlink="http://www.w3.org/1999/xlink" x="0px" y="0px"
	 viewBox="0 0 87.5 112.9" style="enable-background:new 0 0 87.5 112.9;" xml:space="preserve">
<style type="text/css">
	.st0{fill:#FFFFFF;}
	.st1{fill:#171717;}
</style>
<g>
	<path class="st0" d="M87.1,28.9l-0.4-0.4l-24-24l-0.4-0.4l-0.4-0.4h-0.6h-0.5H47.2h-1.9l-0.2-0.5L43.7,0l-1.3,3.2l-0.2,0.5h-1.9
		l0,0l0,0H26.8h-0.5h-0.6l-0.4,0.4l-0.4,0.4l-24,24l-0.4,0.4L0,29.3v0.6v0.5v34V65v0.6L0.4,66l0.4,0.4l9.6,9.6l1.3,1.3l-4.1,10
		L6,91.2l3.6-2.1l8.8-5.1l1.1,1.1l5.2,5.2l0.4,0.4l0.4,0.4h0.6h0.5h12.7l4.3,21.7l4.3-21.7h12.7h0.5h0.6l0.4-0.4l0.4-0.4l5.2-5.2
		L69,84l8.8,5.1l3.6,2.1l-1.6-3.9l-4-9.6v-0.6l1.2-1.2l9.6-9.6l0.4-0.4l0.4-0.4V65v-0.5v-34V30v-0.6L87.1,28.9z M11.6,62.4l-0.8-0.8
		V33.8l0.8-0.8V62.4z M60.1,36.3l-2.1-5h2.1V36.3z M58.4,15.5H52h-0.6l-0.4-1h6.4L58.4,15.5z M30.1,14.5h6.4l-0.4,1h-0.6l0,0l0,0
		h-6.4L30.1,14.5z M29.5,31.3l-2,4.9v-4.9C27.5,31.3,29.5,31.3,29.5,31.3z M76.7,61.1l-0.8,0.8V32.7l0.8,0.8V61.1z"/>
	<g>
		<g>
			<polygon class="st1" points="64.4,82.9 49.3,82.9 48.4,87.1 60.2,87.1 			"/>
			<polygon class="st1" points="39,87.1 38.2,82.9 31.1,82.9 30.7,82.9 30.4,82.6 29.7,81.8 29.5,81.8 27.7,80 23,82.7 27.3,87.1 
							"/>
			<polygon class="st1" points="4.1,31 4.1,63.8 12.6,72.3 14.7,67 9.4,61.7 9.4,33.2 12,30.5 12,23.1 			"/>
			<rect x="43.2" y="81.8" class="st1" width="1" height="5.2"/>
			<rect x="43.2" y="88.4" class="st1" width="1" height="1.3"/>
			<polygon class="st1" points="12,73.7 2.7,64.4 2.7,30.4 26.8,6.4 39.8,6.4 40.3,5.1 26.8,5.1 26.2,5.1 25.8,5.5 1.8,29.5 
				1.4,29.9 1.4,30.4 1.4,64.4 1.4,65 1.8,65.3 11.4,75 			"/>
			<polygon class="st1" points="85.7,29.5 61.7,5.5 61.3,5.1 60.7,5.1 47.2,5.1 47.7,6.4 60.7,6.4 84.8,30.4 84.8,64.4 75.5,73.7 
				76,75 85.7,65.3 86.1,65 86.1,64.4 86.1,30.4 86.1,29.9 			"/>
			<polygon class="st1" points="65.7,83.5 60.7,88.4 48.2,88.4 47.9,89.8 60.7,89.8 61.3,89.8 61.7,89.4 66.9,84.1 			"/>
			<polygon class="st1" points="19.2,15.9 26.6,15.9 29.5,13 37.1,13 39.2,7.8 27.3,7.8 			"/>
			<polygon class="st1" points="39.3,88.4 26.8,88.4 21.8,83.5 20.6,84.1 25.8,89.4 26.2,89.8 26.8,89.8 39.6,89.8 			"/>
			<polygon class="st1" points="83.4,31 60.2,7.8 48.3,7.8 50.4,13 58,13 78.1,33.2 78.1,61.7 75.4,64.4 75.4,71.8 83.4,63.8 			"/>
		</g>
		<g>
			<path class="st1" d="M57.4,29.9h4.1v9.8l13,31.4V31.3c-5.6-5.6-8.7-8.7-14.3-14.3H52L57.4,29.9z"/>
			<path class="st1" d="M26,39.7v-9.8h4.1l5.4-13H17.8c-1.9,1.9-2.9,2.9-4.8,4.8v42.1c0.7,0.7,1.5,1.5,2.1,2.1L26,39.7z"/>
			<path class="st1" d="M47.6,73L47.6,73c-0.8,0.7-1.5,1.5-2.4,2.4v22.7l3.2-16.2H63L47.6,73z"/>
			<path class="st1" d="M39.8,73l-11.2,6.4c0.8,0.8,1.6,1.6,2.4,2.4h8L42.2,98V71.6L39.8,73z"/>
		</g>
		<polygon id="A_1_" class="st1" points="78.5,87.8 43.7,3.7 9,87.8 38.5,70.8 23.4,70.8 40.6,29.2 43.7,29.2 46.9,29.2 64.1,70.8 
			49,70.8 		"/>
	</g>
</g>
</svg>
