<?xml version="1.0" encoding="utf-8"?>
<!-- Generator: Adobe Illustrator 24.0.1, SVG Export Plug-In . SVG Version: 6.00 Build 0)  -->
<svg version="1.1" id="Layer_1" xmlns="http://www.w3.org/2000/svg" xmlns:xlink="http://www.w3.org/1999/xlink" x="0px" y="0px"
	 viewBox="0 0 149 27.9" style="enable-background:new 0 0 149 27.9;" xml:space="preserve">
<style type="text/css">
	.st0{fill:#FFFFFF;}
	.st1{fill:#171717;}
	.st2{fill:#DC2827;}
</style>
<g>
	<g>
		<g>
			<path class="st0" d="M111.6,22L111.6,22L111.6,22l0.6-3.1l0.2-1.2l-1.2,0.1c-0.3,0-0.4-0.1-0.4-0.1c0-0.1,0-0.3,0-0.5V5.8
				l-4.6,0.7v11.1c0,0.1,0,0.1,0,0.2h-0.4v-2.9c0-0.7-0.1-1.3-0.2-1.8c-0.2-0.6-0.5-1.2-0.9-1.6c-0.4-0.4-1-0.8-1.7-1
				c-0.5-0.2-1.2-0.3-1.9-0.3l0,0h-5.4c0.3-0.4,0.4-0.9,0.4-1.4c0-0.8-0.3-1.4-0.8-1.9c-1-0.9-2.5-0.9-3.5,0
				c-0.5,0.5-0.8,1.1-0.8,1.9c0,0.6,0.2,1,0.4,1.4h-0.2v0.3v0.6l-0.5-0.2c-0.4-0.2-0.9-0.3-1.4-0.4c-0.5-0.1-1-0.2-1.6-0.2
				c-0.9,0-1.7,0.2-2.4,0.5c-0.7,0.3-1.3,0.7-1.8,1.3c-0.5,0.5-0.9,1.2-1.2,1.9c-0.1,0.2-0.1,0.4-0.2,0.7c-0.1-0.3-0.1-0.5-0.2-0.8
				c-0.3-0.7-0.7-1.4-1.1-1.9c-0.5-0.5-1.1-0.9-1.8-1.2c-1.4-0.6-3.1-0.6-4.5,0c-0.7,0.3-1.3,0.7-1.8,1.2c-0.5,0.5-0.9,1.1-1.2,1.9
				c-0.2,0.5-0.3,1-0.3,1.5c-0.2-0.4-0.5-0.8-0.8-1.2c-0.4-0.4-0.9-0.7-1.4-1c-0.5-0.2-1.1-0.5-1.8-0.7c-0.3-0.1-0.6-0.2-0.8-0.3
				c-0.2-0.1-0.4-0.2-0.5-0.3c-0.1-0.1-0.2-0.1-0.2-0.1c0,0,0.2-0.1,0.9-0.1c0.5,0,0.9,0.1,1.2,0.2c0.4,0.1,0.7,0.3,1,0.4l1,0.5
				l1.5-4.1l-0.8-0.4c-0.5-0.2-1-0.5-1.7-0.7c-0.7-0.2-1.5-0.3-2.4-0.3c-0.8,0-1.5,0.1-2.2,0.3c-0.7,0.2-1.3,0.5-1.8,0.9
				c-0.5,0.4-0.9,0.9-1.2,1.5c-0.2,0.4-0.3,0.9-0.4,1.4l-1.8-1.8h-3.4L52.2,6h-4.4l-6-6l-7.5,7.5l-1.9-1.9l-6,6.1l-6.1-6.1l-2.3,2.3
				l1.6,1.6h-2.8L13.2,6H8l3.5,3.5H8.7L5.2,6H0l8,7.9l-4.5,4.5H7l-3.5,3.5h5.2l3.5-3.5H15l-3.5,3.5h5.2l1.6-1.6l2,2l6.1-6.1l6,6.1
				l1.9-1.9l7.5,7.5l9.5-9.5H54l-3.5,3.5h5.2l6.8-6.8c0.4,0.3,0.8,0.5,1.2,0.7c0.4,0.2,0.9,0.4,1.3,0.5c1,0.3,1.5,0.6,1.7,0.7
				c0.1,0.1,0.1,0.1,0.1,0.2c0,0.1,0,0.1,0,0.1c0,0-0.1,0.1-0.3,0.1c-0.1,0-0.3,0.1-0.7,0.1c-0.7,0-1.2-0.1-1.7-0.2
				c-0.5-0.1-0.9-0.3-1.2-0.5l-1-0.6l-1.5,4.1l0.7,0.4c0.2,0.1,0.4,0.2,0.7,0.3c0.3,0.1,0.6,0.2,1,0.3c0.4,0.1,0.8,0.2,1.3,0.3
				c0.5,0.1,1.9,0.1,2,0.1v0"/>
			<path class="st0" d="M143.6,24.7l-1.2-1.2l-0.3,0.3l-0.4-0.3l-1,1l-1-1l-0.4,0.3l0,0l-0.3-0.3l-1.1,1l-1.1-1l-0.3,0.3l-0.3-0.3
				l-1.1,1l-1-1l-0.3,0.3l-0.4-0.3l-1,1l-1-1l-0.4,0.3l0,0l-0.3-0.3l-1.2,1.2l0.3,0.4l0,0l-0.3,0.3l1.2,1.2l0.3-0.3l0.4,0.3l1-1l1,1
				l0.4-0.3l0,0l0.3,0.3l1-1l1.1,1l0.3-0.3l0.3,0.3l1.1-1l1.1,1l0.3-0.3l0.4,0.3l1-1l1,1l0.4-0.3l0,0l0.3,0.3l1.2-1.2l-0.3-0.3
				L143.6,24.7z M132.2,25.3l-0.2-0.2l0.2-0.2l0.2,0.2l0,0L132.2,25.3z M135,25.3l-0.2-0.2l0.2-0.2l0.2,0.2L135,25.3z M137.8,25.3
				l-0.2-0.2l0.2-0.2l0.2,0.2L137.8,25.3z M140.6,25.3l-0.2-0.2l0.2-0.2l0.2,0.2l0,0L140.6,25.3z"/>
			<polygon class="st0" points="47.5,23.2 43.8,26.9 125.9,26.9 129.6,23.2 			"/>
			<path class="st0" d="M147.7,20.1c-0.2-0.4-0.4-0.8-0.7-1.2c-0.1-0.2-0.2-0.3-0.3-0.5c-0.2-0.2-0.3-0.5-0.5-0.7
				c-0.1-0.1-0.1-0.2-0.2-0.3c0-0.1-0.1-0.1-0.1-0.2c-0.3-0.4-0.6-0.7-0.8-1.1c-0.1-0.1-0.1-0.1-0.1-0.2c-0.1-0.2-0.3-0.3-0.4-0.5
				c0.4-0.5,0.9-0.9,1.3-1.3c0.6-0.7,1.2-1.4,1.8-2.1l1.4-1.7h-5.8l-0.9,1.1c-0.2,0.2-0.4,0.4-0.6,0.7V5.8l-4.6,0.7v12.9l-0.3,0
				l0-0.1c0-0.2,0-0.5,0-0.9v-3c0-0.7-0.1-1.4-0.2-2c-0.2-0.7-0.5-1.2-0.9-1.7c-0.4-0.5-1-0.9-1.7-1.2c-0.5-0.2-1.2-0.3-1.9-0.4
				c-0.2,0-0.3,0-0.5-0.1H126c0.3-0.4,0.4-0.9,0.4-1.4c0-0.8-0.3-1.4-0.8-1.9c-1-0.9-2.5-0.9-3.5,0c-0.5,0.5-0.8,1.1-0.8,1.9
				c0,0.6,0.2,1.1,0.4,1.4h-0.2l0,1v6.6l-0.4,0l-0.2,0c-0.1,0-0.2-0.1-0.3-0.1c0-0.1,0-0.3,0-0.5V5.8l-4.6,0.7v11.1
				c0,0.6,0.1,1.1,0.2,1.6c0.1,0.6,0.4,1.1,0.8,1.5c0.4,0.4,0.9,0.7,1.5,0.9c0.5,0.2,1.1,0.3,1.8,0.3l0,0h0.3l0.9,0l0,0h27.2
				l-0.8-1.5C147.8,20.3,147.8,20.2,147.7,20.1z"/>
		</g>
	</g>
	<g>
		<g>
			<g>
				<polygon class="st1" points="19.3,7.9 20.3,7 26.3,13 32.4,7 33.3,7.9 27.2,13.9 33.3,20 32.4,20.9 26.3,14.9 20.3,20.9 
					19.3,20 25.4,13.9 				"/>
				<path class="st1" d="M41.8,4.6l-9.3,9.3l9.3,9.4l9.4-9.3L41.8,4.6 M41.8,1.4L54.4,14L41.8,26.5L29.3,14L41.8,1.4L41.8,1.4z"/>
				<path class="st2" d="M41.8,6.9l-7,7l7,7l7-7L41.8,6.9L41.8,6.9z"/>
				<g>
					<g>
						<polygon class="st1" points="19.7,13.9 12.8,7 10.4,7 17.4,13.9 13.9,17.4 16.3,17.4 						"/>
					</g>
					<g>
						<polygon class="st1" points="23.2,13.9 19.7,10.5 17.4,10.5 20.9,13.9 13.9,20.9 16.3,20.9 						"/>
					</g>
				</g>
				<g>
					<g>
						<polygon class="st1" points="11.8,13.9 4.8,7 2.4,7 9.4,13.9 5.9,17.4 8.3,17.4 						"/>
					</g>
					<g>
						<polygon class="st1" points="15.2,13.9 11.8,10.5 9.4,10.5 12.9,13.9 5.9,20.9 8.3,20.9 						"/>
					</g>
				</g>
				<g>
					<g>
						<polygon class="st1" points="58.7,13.9 51.8,7 49.4,7 56.4,13.9 52.9,17.4 55.2,17.4 						"/>
					</g>
					<g>
						<polygon class="st1" points="62.2,13.9 58.7,10.5 56.4,10.5 59.9,13.9 52.9,20.9 55.2,20.9 						"/>
					</g>
				</g>
			</g>
			<g>
				<polygon class="st1" points="131.2,24.2 130.8,24.6 130.5,24.2 130,24.7 130.3,25.1 130,25.4 130.5,25.9 130.8,25.6 131.2,25.9 
					131.7,25.4 131.3,25.1 131.7,24.7 				"/>
				<polygon class="st1" points="134,24.2 133.6,24.6 133.3,24.2 132.8,24.7 133.1,25.1 132.8,25.4 133.3,25.9 133.6,25.6 134,25.9 
					134.5,25.4 134.1,25.1 134.5,24.7 				"/>
				<polygon class="st1" points="136.8,24.2 136.4,24.6 136.1,24.2 135.6,24.7 135.9,25.1 135.6,25.4 136.1,25.9 136.4,25.6 
					136.8,25.9 137.3,25.4 136.9,25.1 137.3,24.7 				"/>
				<polygon class="st1" points="139.6,24.2 139.2,24.6 138.9,24.2 138.4,24.7 138.7,25.1 138.4,25.4 138.9,25.9 139.2,25.6 
					139.6,25.9 140.1,25.4 139.7,25.1 140.1,24.7 				"/>
				<polygon class="st1" points="142.4,24.2 142,24.6 141.7,24.2 141.2,24.7 141.5,25.1 141.2,25.4 141.7,25.9 142,25.6 142.4,25.9 
					142.9,25.4 142.5,25.1 142.9,24.7 				"/>
			</g>
			<polygon class="st1" points="127.2,24.2 125.5,25.9 46.2,25.9 47.9,24.2 			"/>
		</g>
		<g>
			<path class="st1" d="M65.8,18.6c0.4,0,0.7,0,1-0.1c0.3-0.1,0.5-0.2,0.6-0.3c0.2-0.1,0.3-0.2,0.3-0.4c0.1-0.2,0.1-0.3,0.1-0.5
				c0-0.4-0.2-0.7-0.6-1c-0.4-0.3-1-0.6-1.9-0.9c-0.4-0.1-0.8-0.3-1.2-0.5c-0.4-0.2-0.8-0.4-1.1-0.7c-0.3-0.3-0.6-0.6-0.8-1
				c-0.2-0.4-0.3-0.9-0.3-1.4c0-0.6,0.1-1.1,0.3-1.5c0.2-0.5,0.5-0.8,0.9-1.2s0.9-0.6,1.4-0.7c0.6-0.2,1.2-0.3,1.9-0.3
				c0.8,0,1.5,0.1,2.1,0.3C69.1,8.6,69.6,8.8,70,9l-0.8,2.2c-0.3-0.2-0.7-0.3-1.1-0.5c-0.4-0.1-0.9-0.2-1.5-0.2
				c-0.7,0-1.1,0.1-1.4,0.3c-0.3,0.2-0.4,0.5-0.4,0.8c0,0.2,0.1,0.4,0.2,0.6c0.1,0.2,0.3,0.3,0.5,0.4c0.2,0.1,0.4,0.2,0.7,0.3
				c0.3,0.1,0.5,0.2,0.8,0.3c0.6,0.2,1.2,0.5,1.7,0.7c0.5,0.2,0.9,0.5,1.2,0.8c0.3,0.3,0.5,0.7,0.7,1.1c0.2,0.4,0.2,0.9,0.2,1.5
				c0,1.1-0.4,2-1.2,2.7c-0.8,0.6-2,0.9-3.6,0.9c-0.5,0-1,0-1.5-0.1c-0.4-0.1-0.8-0.1-1.2-0.2c-0.3-0.1-0.6-0.2-0.9-0.3
				c-0.2-0.1-0.4-0.2-0.6-0.3l0.8-2.2c0.4,0.2,0.8,0.4,1.4,0.5C64.3,18.5,65,18.6,65.8,18.6z"/>
			<path class="st1" d="M81.3,16c0,0.7-0.1,1.4-0.3,2c-0.2,0.6-0.5,1.1-0.9,1.6c-0.4,0.4-0.9,0.8-1.4,1c-0.6,0.2-1.2,0.4-1.9,0.4
				c-0.7,0-1.3-0.1-1.9-0.4c-0.6-0.2-1-0.6-1.4-1c-0.4-0.4-0.7-0.9-0.9-1.6c-0.2-0.6-0.3-1.3-0.3-2c0-0.7,0.1-1.4,0.3-2
				c0.2-0.6,0.5-1.1,1-1.5c0.4-0.4,0.9-0.8,1.5-1s1.2-0.4,1.8-0.4c0.7,0,1.3,0.1,1.9,0.4c0.6,0.2,1,0.6,1.4,1
				c0.4,0.4,0.7,0.9,0.9,1.5C81.2,14.6,81.3,15.3,81.3,16z M78.6,16c0-0.8-0.2-1.5-0.5-1.9c-0.3-0.5-0.8-0.7-1.4-0.7
				c-0.6,0-1.1,0.2-1.4,0.7c-0.3,0.5-0.5,1.1-0.5,1.9c0,0.8,0.2,1.5,0.5,1.9c0.3,0.5,0.8,0.7,1.4,0.7c0.6,0,1.1-0.2,1.4-0.7
				C78.4,17.5,78.6,16.8,78.6,16z"/>
			<path class="st1" d="M82.9,16c0-0.7,0.1-1.3,0.3-1.9c0.2-0.6,0.5-1.1,0.9-1.6c0.4-0.4,0.9-0.8,1.5-1.1c0.6-0.3,1.3-0.4,2-0.4
				c0.5,0,1,0,1.4,0.1c0.4,0.1,0.8,0.2,1.2,0.4l-0.5,2.1c-0.2-0.1-0.5-0.2-0.8-0.2c-0.3-0.1-0.6-0.1-1-0.1c-0.8,0-1.4,0.2-1.7,0.7
				s-0.6,1.1-0.6,1.9c0,0.8,0.2,1.5,0.5,1.9c0.4,0.5,1,0.7,1.9,0.7c0.3,0,0.7,0,1-0.1c0.4-0.1,0.7-0.2,1-0.3l0.4,2.2
				c-0.3,0.1-0.7,0.2-1.2,0.3c-0.5,0.1-1,0.1-1.5,0.1c-0.9,0-1.6-0.1-2.2-0.4s-1.1-0.6-1.5-1c-0.4-0.4-0.7-1-0.9-1.5
				C83,17.4,82.9,16.7,82.9,16z"/>
			<path class="st1" d="M95.1,8.7c0,0.5-0.2,0.9-0.5,1.1c-0.3,0.3-0.7,0.4-1.1,0.4c-0.4,0-0.8-0.1-1.1-0.4c-0.3-0.3-0.5-0.7-0.5-1.1
				s0.2-0.9,0.5-1.1c0.3-0.3,0.7-0.4,1.1-0.4c0.4,0,0.8,0.1,1.1,0.4C94.9,7.8,95.1,8.2,95.1,8.7z M94.8,20.7h-2.6v-9.3h2.6V20.7z"/>
			<path class="st1" d="M100.6,11.1c0.8,0,1.4,0.1,1.9,0.3c0.5,0.2,0.9,0.4,1.2,0.8c0.3,0.3,0.5,0.7,0.7,1.2c0.1,0.5,0.2,1,0.2,1.6
				v5.5c-0.4,0.1-0.9,0.2-1.6,0.3c-0.7,0.1-1.5,0.2-2.4,0.2c-0.6,0-1.1-0.1-1.6-0.2c-0.5-0.1-0.9-0.3-1.3-0.5
				c-0.4-0.2-0.6-0.6-0.8-0.9c-0.2-0.4-0.3-0.9-0.3-1.4c0-0.5,0.1-1,0.3-1.4c0.2-0.4,0.5-0.7,0.9-0.9c0.4-0.2,0.8-0.4,1.3-0.5
				c0.5-0.1,1-0.1,1.5-0.1c0.3,0,0.6,0,0.9,0c0.3,0,0.5,0.1,0.6,0.1v-0.2c0-0.4-0.1-0.8-0.4-1.1c-0.3-0.3-0.7-0.4-1.4-0.4
				c-0.4,0-0.9,0-1.3,0.1c-0.4,0.1-0.8,0.2-1.1,0.3l-0.3-2.1c0.2,0,0.3-0.1,0.6-0.2c0.2-0.1,0.5-0.1,0.8-0.1c0.3,0,0.6-0.1,0.9-0.1
				C100,11.1,100.3,11.1,100.6,11.1z M100.8,18.8c0.3,0,0.5,0,0.7,0c0.2,0,0.4,0,0.6-0.1v-2c-0.1,0-0.3,0-0.5-0.1
				c-0.2,0-0.4,0-0.6,0c-0.2,0-0.5,0-0.7,0c-0.2,0-0.4,0.1-0.6,0.2c-0.2,0.1-0.3,0.2-0.4,0.3c-0.1,0.1-0.1,0.3-0.1,0.5
				c0,0.4,0.1,0.7,0.4,0.9C100,18.8,100.4,18.8,100.8,18.8z"/>
			<path class="st1" d="M110.8,20.9c-0.8,0-1.4-0.1-1.9-0.2c-0.5-0.2-0.9-0.4-1.1-0.6c-0.3-0.3-0.5-0.6-0.6-1
				c-0.1-0.4-0.2-0.8-0.2-1.3V7.4l2.6-0.4v10.1c0,0.2,0,0.4,0.1,0.6c0,0.2,0.1,0.3,0.2,0.5c0.1,0.1,0.2,0.2,0.4,0.3
				c0.2,0.1,0.4,0.1,0.8,0.2L110.8,20.9z"/>
			<path class="st1" d="M120.6,20.9c-0.8,0-1.4-0.1-1.9-0.2c-0.5-0.2-0.9-0.4-1.1-0.6c-0.3-0.3-0.5-0.6-0.6-1s-0.2-0.8-0.2-1.3V7.4
				l2.6-0.4v10.1c0,0.2,0,0.4,0.1,0.6c0,0.2,0.1,0.3,0.2,0.5c0.1,0.1,0.2,0.2,0.4,0.3c0.2,0.1,0.4,0.1,0.8,0.2L120.6,20.9z"/>
			<path class="st1" d="M125.4,8.7c0,0.5-0.2,0.9-0.5,1.1c-0.3,0.3-0.7,0.4-1.1,0.4c-0.4,0-0.8-0.1-1.1-0.4
				c-0.3-0.3-0.5-0.7-0.5-1.1s0.2-0.9,0.5-1.1c0.3-0.3,0.7-0.4,1.1-0.4c0.4,0,0.8,0.1,1.1,0.4C125.3,7.8,125.4,8.2,125.4,8.7z
				 M125.2,20.7h-2.6v-9.3h2.6V20.7z"/>
			<path class="st1" d="M127.6,11.7c0.4-0.1,1-0.3,1.7-0.4c0.7-0.1,1.5-0.2,2.2-0.2c0.8,0,1.4,0.1,2,0.3c0.5,0.2,0.9,0.5,1.2,0.9
				c0.3,0.4,0.5,0.8,0.7,1.3c0.1,0.5,0.2,1.1,0.2,1.7v5.3H133v-4.9c0-0.9-0.1-1.5-0.3-1.8c-0.2-0.4-0.6-0.5-1.3-0.5
				c-0.2,0-0.4,0-0.6,0c-0.2,0-0.4,0-0.6,0.1v7.2h-2.6V11.7z"/>
			<path class="st1" d="M140.7,14.7c0.3-0.3,0.5-0.6,0.8-0.9c0.3-0.3,0.5-0.6,0.8-0.9c0.3-0.3,0.5-0.6,0.7-0.9
				c0.2-0.3,0.4-0.5,0.6-0.7h3.1c-0.6,0.7-1.2,1.4-1.8,2.1c-0.6,0.7-1.2,1.3-2,2c0.4,0.3,0.7,0.7,1.1,1.1s0.7,0.9,1.1,1.4
				s0.7,0.9,1,1.4c0.3,0.5,0.5,0.9,0.7,1.3h-3c-0.2-0.3-0.4-0.6-0.6-1c-0.2-0.4-0.5-0.7-0.8-1.1c-0.3-0.4-0.6-0.7-0.9-1.1
				c-0.3-0.3-0.6-0.6-0.9-0.9v4.1h-2.6V7.4l2.6-0.4V14.7z"/>
		</g>
	</g>
</g>
</svg>
