<?xml version="1.0" encoding="utf-8"?>
<!-- Generator: Adobe Illustrator 24.0.1, SVG Export Plug-In . SVG Version: 6.00 Build 0)  -->
<svg version="1.1" id="Layer_1" xmlns="http://www.w3.org/2000/svg" xmlns:xlink="http://www.w3.org/1999/xlink" x="0px" y="0px"
	 viewBox="0 0 86.6 32.5" style="enable-background:new 0 0 86.6 32.5;" xml:space="preserve">
<style type="text/css">
	.st0{fill:#FFFFFF;}
	.st1{fill:#171717;}
	.st2{fill:#DB2727;}
</style>
<g>
	<g>
		<path class="st0" d="M35.4,24.3c0-0.2,0-0.4-0.1-0.6c0-0.3-0.1-0.7-0.1-1c0-0.3,0-0.7,0-1.1v-6c0-1.6-0.3-2.8-1-3.7
			c-0.7-1-2-1.5-3.6-1.5c-1.6,0-2.9,0.5-3.7,1.4c-0.8,0.9-1.2,2.2-1.3,3.9l0,0.7v0c0-0.4,0-0.9-0.1-1.5c-0.1-0.6-0.2-1.3-0.5-1.9
			c-0.3-0.7-0.7-1.3-1.2-1.8c-0.6-0.5-1.4-0.8-2.3-0.8c-0.5,0-1,0.1-1.5,0.3V6.2v-1h-1h-2.4h-1v1v6.6v1v10.9v1h1h2.4h1h0.2
			c0.3,0.1,0.7,0.2,1.1,0.2c0.5,0,0.9-0.1,1.2-0.2h0.1v0c0.6-0.2,1-0.5,1.4-0.9c0.6-0.6,1-1.5,1.2-2.5c0.2-0.9,0.3-1.9,0.3-2.9v-2.9
			l1,0l1.8,0.1v0.3c-0.3,0.2-0.6,0.4-0.9,0.6c-0.6,0.5-1.1,1.1-1.4,1.8c-0.3,0.7-0.5,1.5-0.5,2.5c0,0.7,0.1,1.3,0.4,1.9
			c0.3,0.6,0.7,1.1,1.2,1.5c0.6,0.4,1.3,0.7,2,0.7c0.8,0,1.5-0.2,2.1-0.6l0.1,0.4h0.8h2.2h1.1l-0.1-1.1L35.4,24.3z"/>
		<path class="st0" d="M13.5,10.7c-0.5-0.3-1.1-0.4-1.7-0.4c-0.8,0-1.5,0.2-2.2,0.5c-0.3,0.1-0.6,0.3-0.8,0.5
			c-0.2-0.2-0.4-0.4-0.6-0.5c-0.5-0.3-1.2-0.5-1.8-0.5c-0.7,0-1.4,0.2-2.1,0.5c0,0,0,0-0.1,0v-0.3h-1H1H0v1v13.2v1h1h0.6h1h0.7h1
			h9.9h1v0v-1v0v-4.6v-1v-4.8c0-0.9-0.1-1.6-0.4-2.2C14.5,11.5,14,11,13.5,10.7z"/>
		<path class="st0" d="M86.4,13.4c-0.1-0.6-0.3-1.1-0.6-1.6c-0.3-0.5-0.7-0.9-1.2-1.2c-0.5-0.3-1.1-0.4-1.8-0.4
			c-0.6,0-1.2,0.1-1.8,0.4c0,0,0,0-0.1,0v-0.2h-1h-3.7h-1v0h-0.3h-1h-0.1l0.8-0.8l0.3-0.3V9V7.3v-1h-1H71h-0.4l-0.3,0.3L70,6.9
			c-0.2,0.2-0.4,0.4-0.6,0.6l-0.3,0.3v0.4v1.7v0.7l-0.2-0.1c-0.2-0.1-0.3-0.1-0.5-0.1c-0.1,0-0.3,0-0.4,0c-0.7,0-1.3,0.2-1.8,0.6
			v-0.4h-1h-3.7h-1v1v10.7L57.8,8l-0.2-1.2l-0.3-1.6l-1.1,1.6h-1.3h-0.6l-0.3,0.5L42,28.3l-2.5,4.3l3.9-3l3.2-2.4l0.2-0.1l0.1-0.2
			l0.7-1.2h0.7h2H51h1.1h0.8h2.3h0.9h1.1h1.3h1.3h0.5v0h1h1.1h1h1.7h1h5.7H72h0.8H73h2.2v3.3v1h1h3.7h1v-1v-3.5
			c0.6,0.3,1.2,0.4,1.8,0.4c0.9,0,1.6-0.2,2.2-0.7c0.6-0.5,1-1.1,1.3-1.9c0.3-0.7,0.4-1.6,0.4-2.5v-5.7
			C86.6,14.5,86.6,13.9,86.4,13.4z"/>
		<path class="st0" d="M40.1,25.7h0.8h0.1h0.2h0.6l0.3-0.5l12.1-21L56.8,0l-3.9,3l-3.2,2.4l-0.2,0.1l-0.1,0.2l-4.1,7.2
			c0-0.1,0-0.2-0.1-0.3c-0.2-0.6-0.4-1.1-0.9-1.5c-0.5-0.5-1.1-0.7-1.9-0.7c-0.8,0-1.6,0.2-2.3,0.6V6.2v-1h-1h-2.4h-1v1v18.6v1h1
			h1.2h1.3h0.4H40.1z"/>
	</g>
	<g>
		<g>
			<path class="st1" d="M24.1,13.2c-0.2-0.5-0.5-1-0.9-1.3c-0.4-0.4-0.9-0.5-1.6-0.5c-0.6,0-1,0.1-1.5,0.4c-0.4,0.2-0.8,0.5-1,0.9
				V6.2h-2.4v18.6h2.4v-1c0.3,0.3,0.6,0.6,1,0.8c0.4,0.2,0.8,0.4,1.3,0.4c0.9,0,1.5-0.3,2-0.8c0.5-0.5,0.8-1.2,1-2
				c0.2-0.8,0.3-1.7,0.3-2.6v-3.2c0-0.4,0-0.9-0.1-1.4C24.4,14.3,24.3,13.7,24.1,13.2z M22.1,19.5c0,0.6,0,1.2-0.1,1.8
				c0,0.5-0.2,1-0.3,1.3c-0.2,0.3-0.5,0.5-0.9,0.5c-0.4,0-0.7-0.1-1-0.2c-0.3-0.1-0.6-0.3-0.8-0.4v-8.5c0.2-0.2,0.5-0.3,0.7-0.5
				c0.3-0.1,0.6-0.2,0.9-0.2c0.4,0,0.7,0.1,0.9,0.4s0.3,0.6,0.4,1.1c0.1,0.5,0.1,1,0.1,1.5L22.1,19.5L22.1,19.5z"/>
			<path class="st1" d="M34.2,22.7c0-0.4,0-0.8,0-1.2v-6c0-1.4-0.3-2.4-0.8-3.1s-1.5-1.1-2.8-1.1c-1.3,0-2.3,0.3-3,1
				c-0.6,0.7-1,1.8-1,3.2l2.4,0.1V15c0-0.4,0-0.7,0.1-1c0.1-0.3,0.2-0.5,0.4-0.7c0.2-0.2,0.5-0.2,0.8-0.2c0.4,0,0.7,0.1,0.9,0.3
				s0.3,0.4,0.4,0.8c0.1,0.4,0.1,0.8,0.1,1.3v0.9c-0.7,0.3-1.4,0.6-2,0.8c-0.6,0.3-1.2,0.6-1.7,1c-0.5,0.4-0.9,0.9-1.1,1.4
				c-0.3,0.6-0.4,1.3-0.4,2.1c0,0.5,0.1,1,0.3,1.5c0.2,0.5,0.5,0.8,0.9,1.1c0.4,0.3,0.9,0.4,1.4,0.4c0.8,0,1.4-0.2,1.8-0.7
				c0.4-0.5,0.7-0.9,0.9-1.5c0,0.3,0.1,0.6,0.2,1c0.1,0.4,0.1,0.7,0.2,0.9h2.2c0-0.3-0.1-0.6-0.1-0.9C34.3,23.5,34.3,23.1,34.2,22.7
				z M31.8,21.7c-0.1,0.1-0.2,0.2-0.3,0.4s-0.4,0.3-0.6,0.5c-0.2,0.1-0.4,0.2-0.7,0.2c-0.4,0-0.7-0.2-0.9-0.5
				C29.1,22,29,21.6,29,21.1c0-0.4,0.1-0.7,0.2-1c0.1-0.3,0.3-0.6,0.6-0.8c0.2-0.2,0.5-0.5,0.9-0.7c0.3-0.2,0.7-0.4,1.1-0.6V21.7z"
				/>
			<path class="st1" d="M13,11.6c-0.4-0.2-0.7-0.3-1.2-0.3c-0.6,0-1.2,0.1-1.8,0.4c-0.6,0.3-1.1,0.7-1.5,1.3
				c-0.2-0.6-0.4-1.1-0.8-1.3c-0.4-0.2-0.8-0.4-1.3-0.4c-0.6,0-1.1,0.1-1.6,0.4s-1,0.6-1.5,1.1v-1.3H1v13.2h2.3V13.9
				c0.3-0.3,0.7-0.6,1-0.8c0.4-0.2,0.7-0.3,1-0.3c0.4,0,0.6,0.1,0.8,0.3c0.2,0.2,0.3,0.7,0.3,1.3v10.2h2.2V14.3c0-0.1,0-0.1,0-0.2
				s0-0.1,0-0.2c0.3-0.3,0.6-0.6,1-0.8c0.4-0.2,0.7-0.3,1.1-0.3c0.4,0,0.6,0.1,0.8,0.3c0.2,0.2,0.3,0.7,0.3,1.3v10.2h2.2V14.3
				c0-0.7-0.1-1.3-0.3-1.8C13.6,12.1,13.4,11.8,13,11.6z"/>
			<polygon class="st1" points="51.8,6.2 51.7,6.2 51.7,6.3 			"/>
			<rect x="70.1" y="11.5" class="st1" width="3.7" height="13.2"/>
			<path class="st1" d="M85.5,13.6c-0.1-0.5-0.3-0.9-0.5-1.3c-0.2-0.4-0.5-0.6-0.9-0.8c-0.4-0.2-0.8-0.3-1.3-0.3
				c-0.5,0-0.9,0.1-1.4,0.3s-1,0.5-1.4,0.9v-1h-3.7v17.6h3.7v-5.4c0.4,0.4,0.9,0.7,1.4,0.9c0.5,0.2,1,0.3,1.4,0.3
				c0.6,0,1.2-0.2,1.6-0.5c0.4-0.3,0.8-0.8,1-1.4c0.2-0.6,0.3-1.3,0.3-2.2v-5.7C85.6,14.6,85.6,14.1,85.5,13.6z M81.9,21.1
				c0,0.3,0,0.5-0.1,0.7c-0.1,0.2-0.2,0.4-0.3,0.5c-0.1,0.1-0.3,0.2-0.6,0.2c-0.2,0-0.3,0-0.5-0.1c-0.2-0.1-0.3-0.1-0.5-0.2V14
				c0.2-0.1,0.3-0.2,0.5-0.3c0.2-0.1,0.4-0.1,0.6-0.1c0.2,0,0.4,0.1,0.5,0.2c0.1,0.1,0.2,0.3,0.3,0.5c0.1,0.2,0.1,0.4,0.1,0.7
				L81.9,21.1L81.9,21.1L81.9,21.1z"/>
			<path class="st1" d="M70.1,8.2v1.7H73c0.4-0.4,0.5-0.5,0.9-0.9V7.3H71C70.7,7.6,70.5,7.8,70.1,8.2z"/>
			<path class="st1" d="M41.7,13.6c0.1,0.3,0.2,0.6,0.2,1.1v7.7l2.4-4V14c0-0.4-0.1-0.8-0.2-1.3c-0.1-0.4-0.3-0.8-0.6-1
				s-0.7-0.4-1.2-0.4c-0.7,0-1.3,0.2-1.8,0.5c-0.5,0.3-1,0.7-1.5,1.1V6.2h-2.4v18.6h2.4V14.1c0.3-0.2,0.6-0.5,0.9-0.6
				c0.3-0.2,0.6-0.2,0.9-0.2C41.3,13.2,41.6,13.3,41.7,13.6z"/>
			<polygon class="st1" points="54.2,11.7 55.1,18.3 53.1,18.3 54,12 49.3,19 48.2,24.7 52.1,24.7 52.7,20.8 55.5,20.8 56.1,24.7 
				59.9,24.7 56.7,7.8 			"/>
			<path class="st1" d="M68,11.3c-0.6,0-1.1,0.2-1.6,0.6c-0.4,0.4-0.9,1-1.3,1.8v-2.2h-3.7v13.2h3.7v-8.6c0.3-0.4,0.6-0.7,1-0.9
				c0.4-0.2,0.8-0.3,1.2-0.3c0.2,0,0.4,0,0.7,0.1c0.2,0.1,0.4,0.1,0.6,0.2v-3.7c-0.1,0-0.2-0.1-0.2-0.1C68.2,11.3,68.1,11.3,68,11.3
				z"/>
		</g>
		<g>
			<g>
				<polygon class="st2" points="53.4,3.8 41.3,24.7 39.5,24.7 50.3,6.2 				"/>
			</g>
		</g>
		<g>
			<g>
				<polygon class="st2" points="42.8,28.8 54.9,7.8 56.7,7.8 46,26.4 				"/>
			</g>
		</g>
	</g>
</g>
</svg>
